<?xml version="1.0" encoding="utf-8"?>
<!-- Generator: Adobe Illustrator 21.0.2, SVG Export Plug-In . SVG Version: 6.00 Build 0)  -->
<svg version="1.1" xmlns="http://www.w3.org/2000/svg" xmlns:xlink="http://www.w3.org/1999/xlink" x="0px" y="0px"
	 viewBox="0 0 24 24" style="enable-background:new 0 0 24 24;" xml:space="preserve">
<style type="text/css">
	.st0{fill:#FFFFFF;}
</style>
<g id="Layer_3">
	<path id="Layer_x0020_1" class="st0" d="M11.9,24.1c2.4,0,4.6-0.7,6.4-1.9h-6.4v0c-1.8,0-3.5-0.5-5-1.3h9.9l0,0H20
		c1.5-1.4,2.6-3.1,3.3-5H11.9v0H2.5c-0.2-0.4-0.3-0.9-0.4-1.3h21.6c0.2-0.8,0.3-1.7,0.3-2.5c0-0.9-0.1-1.7-0.3-2.5H2.1
		c0.1-0.4,0.3-0.9,0.4-1.3h20.8c-0.7-1.9-1.8-3.7-3.3-5H7c1.5-0.8,3.2-1.3,5-1.3h6.4c-1.9-1.2-4.1-1.9-6.4-1.9c-4,0-7.6,2-9.8,5
		h17.1c0.4,0.4,0.7,0.8,1,1.3h-7.6v0H1.4C0.5,7.9,0,9.6,0,11.5h1.9v0h20.2c0,0.2,0,0.4,0,0.7c0,0.2,0,0.4,0,0.7h-9.3v0H0
		c0.1,1.8,0.6,3.5,1.4,5h2.2l0,0h16.8c-0.3,0.5-0.7,0.9-1,1.3h-6.6v0H2.2C4.3,22.1,7.9,24.1,11.9,24.1z"/>
</g>
<g id="Layer_2">
	<g>
		<path class="st0" d="M23.9,6.5C23.7,6.2,23.4,6,23,6c-2.4,0-4.7,0-7.1,0c-0.6,0-1,0.2-1.2,0.7c-0.6,1.1-1.2,2.1-1.8,3.2
			c-0.3,0.5-0.5,0.9-0.8,1.4c0,0,0,0.1-0.1,0.1l-0.1-0.1c-0.3-0.5-0.5-0.9-0.8-1.4c-0.6-1.1-1.2-2.1-1.8-3.2C9,6.2,8.7,6,8.1,6
			C5.7,6,3.3,6,1,6C0.6,6,0.3,6.2,0.1,6.5s-0.2,0.7,0,1C0.4,7.9,0.7,8.4,1,8.8c0.7,1.3,1.5,2.5,2.2,3.8c0.8,1.3,1.5,2.7,2.3,4
			c0.7,1.2,1.4,2.4,2.1,3.6c0.2,0.3,0.5,0.5,0.9,0.5s0.6-0.2,0.8-0.5s0.4-0.6,0.6-1c0.6-1.1,1.2-2.1,1.8-3.2
			c0.1-0.2,0.3-0.5,0.4-0.7c0.2,0.3,0.3,0.5,0.4,0.7c0.6,1.1,1.2,2.1,1.8,3.2c0.2,0.3,0.4,0.6,0.6,1c0.2,0.3,0.4,0.5,0.8,0.5
			c0.4,0,0.7-0.1,0.9-0.5c0.7-1.2,1.4-2.4,2.1-3.6c0.8-1.3,1.5-2.7,2.3-4c0.7-1.3,1.5-2.5,2.2-3.8c0.3-0.5,0.5-0.9,0.8-1.4
			C24,7.1,24,6.8,23.9,6.5z M10.9,13.5c-0.7,1.2-1.4,2.4-2.1,3.6c-0.1,0.2-0.3,0.5-0.4,0.7c-1.9-3.3-3.8-6.7-5.8-10
			c0.1,0,0.2,0,0.3,0c1.6,0,3.1,0,4.7,0C7.8,7.8,7.9,7.9,8,8c0.8,1.5,1.7,2.9,2.5,4.4c0.1,0.2,0.3,0.5,0.4,0.7
			C10.9,13.3,10.9,13.4,10.9,13.5z M15.7,17.9c-0.2-0.3-0.3-0.5-0.4-0.7c-0.7-1.2-1.4-2.4-2.1-3.6c0-0.1,0-0.2,0-0.3
			c0.1-0.3,0.3-0.5,0.4-0.7c0.8-1.5,1.7-2.9,2.5-4.4C16.2,8.1,16.3,8,16.5,8c1.6,0,3.1,0,4.7,0c0.1,0,0.1,0,0.3,0
			C19.5,11.2,17.6,14.5,15.7,17.9z"/>
	</g>
</g>
</svg>
