<?xml version="1.0" encoding="utf-8"?>
<!-- Generator: Adobe Illustrator 21.0.2, SVG Export Plug-In . SVG Version: 6.00 Build 0)  -->
<svg version="1.1" id="Layer_1" xmlns="http://www.w3.org/2000/svg" xmlns:xlink="http://www.w3.org/1999/xlink" x="0px" y="0px"
	 viewBox="0 0 24 24" style="enable-background:new 0 0 24 24;" xml:space="preserve">
<style type="text/css">
	.st0{fill:#FFFFFF;}
</style>
<g>
	<path class="st0" d="M12.5,16.1c0-0.1-0.1-0.2-0.2-0.3h-0.5c-0.1,0.1-0.1,0.2-0.2,0.3c-0.3,0.6-0.6,1.1-1,1.7h2.7
		C13.2,17.3,12.8,16.7,12.5,16.1z"/>
	<path class="st0" d="M10.8,9.6c0.1,0.2,0.2,0.4,0.3,0.6c0.3,0.5,0.5,0.8,0.7,1.3h0.3c0.3-0.4,0.5-0.8,0.7-1.3
		c0.1-0.2,0.2-0.4,0.3-0.6H10.8z"/>
	<path class="st0" d="M10.5,14.5c0.2-0.3,0.3-0.6,0.5-0.8c0-0.1,0-0.2,0-0.4c-0.1-0.1-0.2-0.3-0.3-0.5H5.6c0.3,0.6,0.6,1.1,1,1.7
		H10.5z"/>
	<path class="st0" d="M9.9,11.5c-0.4-0.6-0.7-1.3-1.1-1.9H3.7c0.4,0.6,0.7,1.3,1.1,1.9H9.9z"/>
	<path class="st0" d="M14.4,15.8c0.3,0.5,0.6,1,0.9,1.5c0.1,0.2,0.2,0.3,0.3,0.5h0.2c0.4-0.7,0.8-1.3,1.1-2H14.4z"/>
	<path class="st0" d="M7.7,8.1c-1.6,0-3,0-4.6,0c-0.1,0-0.2,0-0.3,0c0,0,0.1,0.1,0.1,0.1h5.1C8,8.2,7.9,8.1,7.7,8.1z"/>
	<path class="st0" d="M9.7,15.8H7.3c0.4,0.7,0.8,1.3,1.1,2h0.1c0.1-0.2,0.3-0.4,0.4-0.6C9.2,16.8,9.4,16.3,9.7,15.8z"/>
	<path class="st0" d="M15.4,9.6c-0.4,0.6-0.7,1.3-1.1,1.9h5.1c0.4-0.6,0.8-1.3,1.1-1.9H15.4z"/>
	<path class="st0" d="M18.6,16.7c-0.2,0.4-0.4,0.7-0.6,1.1h2.5c-0.3,0.5-0.7,0.9-1,1.3h-2.2c-0.2,0.4-0.4,0.7-0.6,1.1
		c-0.2,0.4-0.5,0.5-0.9,0.5c-0.4,0-0.6-0.2-0.8-0.5c-0.2-0.4-0.4-0.7-0.6-1c0,0-0.1-0.1-0.1-0.1h-1.4h-2.7c0,0-0.1,0.1-0.1,0.1
		c-0.2,0.4-0.4,0.7-0.6,1c-0.2,0.3-0.4,0.5-0.8,0.5s-0.7-0.2-0.9-0.5c-0.2-0.4-0.4-0.7-0.6-1.1H2.2C4.3,22,7.9,24,11.9,24
		c2.4,0,4.6-0.7,6.4-1.9h-6.4c-1.8,0-3.5-0.5-5-1.3h9.9H20c1.5-1.4,2.6-3.1,3.3-5h-4.2C18.9,16.1,18.8,16.4,18.6,16.7z"/>
	<path class="st0" d="M23.7,9.6h-1c-0.4,0.6-0.7,1.3-1.1,1.9h0.5c0,0.2,0,0.4,0,0.7c0,0.2,0,0.4,0,0.7h-1.3c-0.3,0.6-0.7,1.1-1,1.7
		h3.9c0.2-0.8,0.3-1.7,0.3-2.5C24,11.2,23.9,10.4,23.7,9.6z"/>
	<path class="st0" d="M6.3,17.8c-0.2-0.4-0.4-0.7-0.6-1.1c-0.2-0.3-0.3-0.6-0.5-0.9H2.5c-0.2-0.4-0.3-0.9-0.4-1.3h2.3
		c-0.3-0.6-0.6-1.1-1-1.7H0c0.1,1.8,0.6,3.5,1.4,5h2.2H6.3z"/>
	<path class="st0" d="M13.6,12.8c-0.1,0.2-0.3,0.4-0.4,0.7c0,0.1,0,0.2,0,0.3c0.1,0.2,0.3,0.5,0.4,0.7h4c0.3-0.6,0.6-1.1,1-1.7H13.6
		z"/>
	<path class="st0" d="M1.4,6.4C1.4,6.4,1.4,6.4,1.4,6.4c2.2,0,4.5,0,6.8,0c0.6,0,0.9,0.2,1.2,0.7c0.2,0.4,0.5,0.8,0.7,1.2H14
		c0.2-0.4,0.5-0.8,0.7-1.2c0.2-0.5,0.6-0.7,1.2-0.7c2.2,0,4.4,0,6.6,0C21.8,5.2,21,4.1,20,3.3H7C8.5,2.5,10.2,2,12,2h6.4
		c-1.9-1.2-4.1-1.9-6.4-1.9c-4,0-7.6,2-9.8,5h17.1c0.4,0.4,0.7,0.8,1,1.3h-7.6H1.4z"/>
	<path class="st0" d="M2.7,11.5c-0.5-0.8-0.9-1.5-1.4-2.3c-0.2-0.3-0.5-0.7-0.7-1C0.2,9.1,0,10.2,0,11.5h1.9H2.7z"/>
</g>
</svg>
