<?xml version="1.0" encoding="utf-8"?>
<!-- Generator: Adobe Illustrator 21.0.2, SVG Export Plug-In . SVG Version: 6.00 Build 0)  -->
<svg version="1.1" id="Layer_2" xmlns="http://www.w3.org/2000/svg" xmlns:xlink="http://www.w3.org/1999/xlink" x="0px" y="0px"
	 viewBox="0 0 81.9 55.4" style="enable-background:new 0 0 81.9 55.4;" xml:space="preserve">
<style type="text/css">
	.st0{fill:#FFFFFF;}
</style>
<g>
	<path class="st0" d="M80.7,3.9c-0.6-1.1-1.6-1.6-2.9-1.6c-7.9,0-15.8,0.1-23.7,0c-2,0-3.2,0.8-4.1,2.5c-2,3.6-4.1,7.2-6.2,10.7
		c-0.9,1.5-1.7,3-2.6,4.5c-0.1,0.1-0.2,0.2-0.3,0.3c-0.1-0.1-0.2-0.2-0.3-0.3c-0.9-1.5-1.7-3-2.6-4.5C36.1,12,33.9,8.4,32,4.8
		c-0.9-1.7-2.1-2.5-4.1-2.5c-7.9,0.1-15.8,0-23.7,0c-1.3,0-2.2,0.5-2.9,1.6C0.6,5,0.7,6.1,1.4,7.2c0.9,1.5,1.8,3.1,2.7,4.6
		c2.4,4.2,4.9,8.5,7.3,12.7c2.6,4.5,5.1,8.9,7.7,13.3c2.3,4,4.6,7.9,6.9,11.9c0.6,1.1,1.6,1.6,2.9,1.6c1.2-0.1,2.1-0.7,2.7-1.8
		c0.6-1.1,1.2-2.2,1.8-3.2c2.1-3.6,4.1-7.1,6.2-10.7c0.5-0.8,0.9-1.6,1.5-2.5c0.5,0.9,1,1.7,1.5,2.5c2.1,3.6,4.1,7.1,6.2,10.7
		c0.6,1.1,1.2,2.2,1.8,3.2c0.6,1.1,1.5,1.7,2.7,1.8c1.3,0.1,2.2-0.5,2.9-1.6c2.3-4,4.6-7.9,6.9-11.9c2.6-4.5,5.1-8.9,7.7-13.3
		c2.4-4.2,4.9-8.5,7.3-12.7c0.9-1.5,1.7-3.1,2.7-4.6C81.3,6.1,81.4,5,80.7,3.9z M37.2,27.4c-2.3,4.1-4.7,8.1-7,12.2
		c-0.4,0.8-0.9,1.5-1.5,2.5C22.3,30.9,15.9,19.8,9.4,8.6c0.4,0,0.6-0.1,0.9-0.1c5.3,0,10.5,0,15.8,0c0.6,0,0.9,0.2,1.2,0.7
		c2.8,4.9,5.6,9.8,8.5,14.7c0.5,0.8,1,1.6,1.4,2.4C37.3,26.7,37.3,27.2,37.2,27.4z M53.3,42.1c-0.6-0.9-1-1.7-1.5-2.5
		c-2.3-4.1-4.7-8.1-7-12.2c-0.2-0.3-0.2-0.8,0-1.1c0.4-0.8,0.9-1.6,1.4-2.4c2.8-4.9,5.7-9.8,8.5-14.7c0.3-0.5,0.6-0.7,1.2-0.7
		c5.3,0,10.5,0,15.8,0c0.2,0,0.5,0,0.9,0.1C66.1,19.8,59.7,30.9,53.3,42.1z"/>
</g>
</svg>
