<?xml version="1.0" encoding="utf-8"?>
<!-- Generator: Adobe Illustrator 21.0.2, SVG Export Plug-In . SVG Version: 6.00 Build 0)  -->
<svg version="1.1" id="Layer_2" xmlns="http://www.w3.org/2000/svg" xmlns:xlink="http://www.w3.org/1999/xlink" x="0px" y="0px"
	 viewBox="0 0 210.9 42.3" style="enable-background:new 0 0 210.9 42.3;" xml:space="preserve">
<style type="text/css">
	.st0{fill:#FFFFFF;}
</style>
<g>
	<path class="st0" d="M66.6,3.5c-0.5-0.9-1.2-1.2-2.2-1.2c-6.1,0-12.2,0.1-18.3,0c-1.5,0-2.5,0.6-3.2,1.9c-1.5,2.8-3.2,5.6-4.8,8.3
		c-0.7,1.2-1.3,2.3-2,3.5c-0.1,0.1-0.2,0.2-0.2,0.2c-0.1-0.1-0.2-0.2-0.2-0.2c-0.7-1.2-1.3-2.3-2-3.5c-1.5-2.7-3.2-5.5-4.6-8.3
		c-0.7-1.3-1.6-1.9-3.2-1.9c-6.1,0.1-12.2,0-18.3,0c-1,0-1.7,0.4-2.2,1.2C4.7,4.4,4.7,5.2,5.3,6.1C6,7.3,6.7,8.5,7.4,9.6
		c1.9,3.2,3.8,6.6,5.6,9.8c2,3.5,3.9,6.9,6,10.3c1.8,3.1,3.6,6.1,5.3,9.2c0.5,0.9,1.2,1.2,2.2,1.2c0.9-0.1,1.6-0.5,2.1-1.4
		c0.5-0.9,0.9-1.7,1.4-2.5c1.6-2.8,3.2-5.5,4.8-8.3c0.4-0.6,0.7-1.2,1.2-1.9c0.4,0.7,0.8,1.3,1.2,1.9c1.6,2.8,3.2,5.5,4.8,8.3
		c0.5,0.9,0.9,1.7,1.4,2.5c0.5,0.9,1.2,1.3,2.1,1.4c1,0.1,1.7-0.4,2.2-1.2c1.8-3.1,3.6-6.1,5.3-9.2c2-3.5,3.9-6.9,6-10.3
		c1.9-3.2,3.8-6.6,5.6-9.8c0.7-1.2,1.3-2.4,2.1-3.6C67.1,5.2,67.2,4.4,66.6,3.5z M33,21.7c-1.8,3.2-3.6,6.3-5.4,9.4
		c-0.3,0.6-0.7,1.2-1.2,1.9c-5-8.7-9.9-17.3-14.9-25.9c0.3,0,0.5-0.1,0.7-0.1c4.1,0,8.1,0,12.2,0c0.5,0,0.7,0.2,0.9,0.5
		c2.2,3.8,4.3,7.6,6.6,11.4c0.4,0.6,0.8,1.2,1.1,1.9C33,21.2,33,21.6,33,21.7z M45.4,33.1c-0.5-0.7-0.8-1.3-1.2-1.9
		c-1.8-3.2-3.6-6.3-5.4-9.4c-0.2-0.2-0.2-0.6,0-0.9c0.3-0.6,0.7-1.2,1.1-1.9c2.2-3.8,4.4-7.6,6.6-11.4c0.2-0.4,0.5-0.5,0.9-0.5
		c4.1,0,8.1,0,12.2,0c0.2,0,0.4,0,0.7,0.1C55.3,15.8,50.4,24.4,45.4,33.1z"/>
</g>
</svg>
